<svg width="140" height="180" viewBox="0 0 140 180" xmlns="http://www.w3.org/2000/svg" shape-rendering="crispEdges">
  <rect width="140" height="180" fill="none"/>
  <rect x="32" y="120" width="76" height="10" fill="#f0c47f"/>
  <rect x="36" y="130" width="68" height="8" fill="#e4b56f"/>
  <rect x="42" y="60" width="56" height="60" fill="#7d563f"/>
  <rect x="48" y="66" width="44" height="50" fill="#8e6247"/>
  <rect x="52" y="70" width="36" height="34" fill="#f9f3eb"/>
  <rect x="56" y="74" width="6" height="30" fill="#9b7152"/>
  <rect x="66" y="74" width="4" height="30" fill="#9b7152"/>
  <rect x="76" y="74" width="6" height="30" fill="#9b7152"/>
  <rect x="52" y="82" width="36" height="4" fill="#9b7152"/>
  <rect x="52" y="94" width="36" height="4" fill="#9b7152"/>
  <rect x="36" y="54" width="12" height="22" fill="#8db3d9"/>
  <rect x="92" y="54" width="12" height="22" fill="#8db3d9"/>
  <rect x="44" y="42" width="52" height="16" fill="#5d3d31"/>
  <rect x="40" y="36" width="60" height="8" fill="#5d3d31"/>
  <rect x="36" y="28" width="68" height="8" fill="#5d3d31"/>
  <rect x="32" y="20" width="76" height="8" fill="#5d3d31"/>
  <rect x="34" y="22" width="4" height="4" fill="#8db3d9"/>
  <rect x="102" y="22" width="4" height="4" fill="#8db3d9"/>
  <rect x="30" y="12" width="80" height="8" fill="#5d3d31"/>
  <rect x="36" y="10" width="8" height="2" fill="#8db3d9"/>
  <rect x="96" y="10" width="8" height="2" fill="#8db3d9"/>
  <rect x="44" y="136" width="52" height="4" fill="#f7db92"/>
  <rect x="52" y="140" width="36" height="4" fill="#f7db92"/>
  <rect x="60" y="144" width="20" height="4" fill="#f7db92"/>
  <rect x="64" y="114" width="12" height="6" fill="#da7f71"/>
  <rect x="60" y="118" width="20" height="4" fill="#f0c47f"/>
</svg>
