<svg xmlns="http://www.w3.org/2000/svg" viewBox="0 0 220 140" width="220" height="140" shape-rendering="crispEdges">
  <rect x="30" y="72" width="160" height="48" fill="#8b5e3c"/>
  <rect x="38" y="64" width="144" height="48" fill="#c68642"/>
  <rect x="38" y="64" width="144" height="8" fill="#e5e7eb"/>
  <rect x="30" y="112" width="160" height="8" fill="#1f2937"/>
  <rect x="46" y="120" width="14" height="12" fill="#1f2937"/>
  <rect x="160" y="120" width="14" height="12" fill="#1f2937"/>
  <rect x="75" y="36" width="70" height="40" fill="#1f2937"/>
  <rect x="83" y="44" width="54" height="24" fill="#111827"/>
  <rect x="94" y="52" width="32" height="6" fill="#10b981"/>
  <rect x="103" y="76" width="14" height="8" fill="#1f2937"/>
  <rect x="88" y="84" width="44" height="10" fill="#e5e7eb"/>
  <rect x="92" y="88" width="6" height="3" fill="#1f2937"/>
  <rect x="102" y="88" width="6" height="3" fill="#1f2937"/>
  <rect x="112" y="88" width="6" height="3" fill="#1f2937"/>
  <rect x="122" y="88" width="6" height="3" fill="#1f2937"/>
  <rect x="90" y="18" width="40" height="22" fill="#1f2937"/>
  <rect x="94" y="26" width="32" height="20" fill="#f2c28b"/>
  <rect x="86" y="48" width="48" height="22" fill="#10b981"/>
  <rect x="72" y="30" width="12" height="30" fill="#f2c28b"/>
  <rect x="136" y="30" width="12" height="30" fill="#f2c28b"/>
  <rect x="72" y="26" width="12" height="8" fill="#10b981"/>
  <rect x="136" y="26" width="12" height="8" fill="#10b981"/>
  <rect x="101" y="34" width="4" height="4" fill="#111827"/>
  <rect x="115" y="34" width="4" height="4" fill="#111827"/>
  <rect x="105" y="42" width="12" height="3" fill="#111827"/>
  <rect x="50" y="82" width="24" height="16" fill="#e5e7eb"/>
  <rect x="54" y="86" width="16" height="3" fill="#10b981"/>
  <rect x="153" y="82" width="20" height="16" fill="#10b981"/>
  <rect x="158" y="76" width="10" height="8" fill="#e5e7eb"/>
  <rect x="150" y="18" width="8" height="8" fill="#10b981"/>
  <rect x="158" y="26" width="8" height="8" fill="#10b981"/>
  <rect x="166" y="10" width="8" height="8" fill="#10b981"/>
  <rect x="158" y="18" width="8" height="8" fill="#e5e7eb"/>
</svg>
